<?xml version="1.0" encoding="utf-8"?>
<!-- Generator: Adobe Illustrator 21.0.2, SVG Export Plug-In . SVG Version: 6.00 Build 0)  -->
<svg version="1.1" id="Layer_1" xmlns="http://www.w3.org/2000/svg" xmlns:xlink="http://www.w3.org/1999/xlink" x="0px" y="0px"
	 viewBox="0 0 824.8 159" style="enable-background:new 0 0 824.8 159;" xml:space="preserve">
<style type="text/css">
	.st0{fill:#2ED03C;}
	.st1{fill:#FFFFFF;}
</style>
<g>
	<g>
		<g>
			<g>
				<path class="st0" d="M108.6,43c-1.3-1-2-2.3-2-3.6C104.6,17.2,86.1,0,63.5,0s-41,17.2-43,39.4c0,1.7-1,3-2,3.6
					C7.3,51,0,63.5,0,78.1c0,19.9,13.6,36.7,32.1,41.7l0,0c3.3,1,6.3,1.3,7.6,0.7c2.3-1.3,5.3-12.2,4-14.6c-0.7-1-3.6-2.3-7-3.3l0,0
					c-10.9-3-18.9-12.9-18.9-24.5c0-6.6,2.3-12.6,6.6-16.9c2-2,4-3.6,6.3-5.3c4.6-2.6,7.3-7.6,7.3-12.9l0,0c0-2.6,0.3-5.3,1.3-7.9
					c3.3-10.3,12.9-17.5,24.2-17.5s20.9,7.3,24.2,17.5c0.7,2.3,1.3,5,1.3,7.9l0,0c0,5.3,2.6,10.3,7.3,12.9c2.3,1.3,4.6,3,6.3,5.3
					c4,4.6,6.6,10.6,6.6,16.9c0,13.9-11.6,25.5-25.5,25.5c-16.2,0-29.1,13.2-29.1,29.5v16.9c0,3.3,0.3,6.6,1.3,7.6
					c2,2,12.9,2,14.9,0c1-1,1.3-4.3,1.3-7.6l0,0v-16.9c0-6.3,5.3-11.3,11.6-11.3c23.8,0,43-19.5,43-43C126.8,63.5,119.8,51,108.6,43
					"/>
				<path class="st1" d="M381.3,129.7h-19.5v-6.6c-6,6-13.6,8.9-23.2,8.9c-8.9,0-16.2-3-21.5-8.6c-5.3-5.6-8.3-13.2-8.3-22.5V55.6
					h19.5v41c0,5.3,1.3,9.6,4,12.6c2.6,3.3,6.3,4.6,10.9,4.6c12.2,0,18.5-8.6,18.5-25.5V55.6h19.5V129.7z"/>
				<path class="st1" d="M509.7,61.9c5.6,5.6,8.6,12.9,8.6,21.5v46.3h-19.5V87.4c0-5-1.3-8.6-4.3-11.6c-2.6-3-6.3-4.3-10.3-4.3
					c-5.3,0-9.6,2-12.6,5.6c-3,4-4.6,9.6-4.6,16.9v35.7h-19.5V87.4c0-5-1.3-8.6-4.3-11.6c-2.6-3-6.3-4.3-10.3-4.3
					c-5.3,0-9.6,2-12.6,5.6s-4.3,9.6-4.3,17.2v35.7h-19.5V55.6H416v6c5.6-5.6,12.9-8.3,22.2-8.3c10.6,0,18.9,4,24.5,12.2
					c6.6-8.3,15.6-12.2,27.1-12.2C497.5,53.6,504.1,56.3,509.7,61.9"/>
				<path class="st1" d="M592.8,126.4c-7,3.6-13.2,5.6-19.2,5.6c-9.3,0-16.2-2.3-21.5-7.3c-5.3-5-7.6-12.2-7.6-22.2V71.8h-15.9V55.9
					h15.9V33.4H564v22.5h24.2v15.9H564v29.1c0,8.6,3.6,12.9,10.9,12.9c3.6,0,7.9-1.3,12.2-3.6L592.8,126.4z"/>
				<path class="st1" d="M657.3,55.3l-1,18.9H652c-17.5,0-26.5,10.6-26.5,31.8v23.8H606V55.6h19.5v13.6c6.6-9.6,15.6-14.6,26.5-14.6
					C654.3,54.6,656.3,54.9,657.3,55.3"/>
				<path class="st1" d="M738.4,98h-56.3c1,5.3,3.3,9.3,6.6,12.6c3.3,3,7.3,4.6,11.9,4.6c8.3,0,14.6-3.3,18.5-9.9l17.5,3.6
					c-3.3,7.6-7.9,13.2-14.2,17.2c-6.3,4-13.6,5.6-21.8,5.6c-10.6,0-19.5-3.6-27.1-10.9c-7.3-7.3-10.9-16.9-10.9-28.1
					c0-11.6,3.6-20.9,10.9-28.1c7.3-7.3,16.5-10.9,27.1-10.9c9.9,0,18.9,3.6,26.1,10.6c7.3,7,11.3,16.2,11.6,27.1V98z M689.4,74.1
					c-3.6,2.3-6,5.6-7,9.9h35.7c-1.3-4.6-3.3-7.9-6.6-10.3c-3.3-2.3-7-3.3-10.9-3.3S692.7,71.8,689.4,74.1"/>
				<path class="st1" d="M824.8,98h-56.3c1,5.3,3.3,9.3,6.6,12.6c3.3,3,7.3,4.6,11.9,4.6c8.3,0,14.6-3.3,18.5-9.9l17.5,3.6
					c-3.3,7.6-7.9,13.2-14.2,17.2c-6.3,4-13.6,5.6-21.8,5.6c-10.6,0-19.5-3.6-27.1-10.9c-7.3-7.3-10.9-16.9-10.9-28.1
					c0-11.6,3.6-20.9,10.9-28.1c7.3-7.3,16.5-10.9,27.1-10.9c9.9,0,18.9,3.6,26.1,10.6c7.3,7,11.3,16.2,11.6,27.1V98z M776.1,74.1
					c-3.6,2.3-6,5.6-7,9.9h35.7c-1.3-4.6-3.3-7.9-6.6-10.3c-3.3-2.3-7-3.3-10.9-3.3S779.5,71.8,776.1,74.1"/>
				<path class="st1" d="M240.6,71.8v18.5h33.1c-1.7,7.3-5.3,12.9-10.6,16.9c-5.3,4-11.9,6.3-19.2,6.3c-9.3,0-17.2-3.3-23.5-9.6
					s-9.6-14.2-9.6-23.5s3-17.2,9.3-23.5c6.3-6.3,13.6-9.6,22.5-9.6c12.6,0,22.2,5,28.1,14.9L287,51.3c-3.6-6.3-8.6-11.3-14.9-15.2
					c-8.6-5.3-18.5-7.6-29.5-7.6c-14.6,0-27.1,5-37.1,15.2c-9.9,9.9-15.2,22.2-15.2,36.7s5,26.8,15.2,37.1
					c10.3,9.9,22.8,14.9,37.4,14.9s26.8-5,36.1-14.6c9.6-9.9,14.2-22.2,14.2-37.1c0-2.3,0-5.3-0.3-8.6h-52.3V71.8z"/>
			</g>
		</g>
	</g>
</g>
</svg>
